# Blender3D v249 OBJ File: debris_1.blend
# www.blender3d.org
v 0.002723 0.002892 -0.254301
v 0.202533 -0.143608 -0.122443
v -0.094021 -0.289371 -0.152134
v -0.224731 0.002892 -0.113727
v -0.075103 0.238526 -0.122443
v 0.202533 0.148315 -0.122443
v 0.094021 -0.289371 0.152134
v -0.199268 -0.143608 0.125887
v -0.199268 0.148315 0.125887
v 0.078368 0.238526 0.125887
v 0.249961 0.002354 0.125887
v 0.002723 0.002892 0.254301
v 0.144686 -0.105120 -0.289376
v -0.038590 -0.124257 -0.216322
v 0.069570 -0.202840 -0.133696
v 0.144686 0.105120 -0.289376
v 0.237807 0.002354 -0.144244
v -0.144332 0.002354 -0.234454
v -0.189437 -0.136466 -0.144244
v -0.043472 0.141173 -0.234455
v -0.234108 0.170089 -0.178845
v 0.069570 0.208625 -0.133696
v 0.265685 0.088148 0.001722
v 0.265685 -0.083441 0.001722
v 0.199953 -0.275212 -0.000000
v 0.001632 -0.275287 0.001722
v -0.199953 -0.275212 -0.000000
v -0.262420 -0.083441 0.001722
v -0.239133 0.081474 -0.000000
v -0.199953 0.275212 -0.000000
v 0.002723 0.257193 -0.000000
v 0.199953 0.275212 -0.000000
v 0.177730 -0.124258 0.133695
v -0.071351 -0.222261 0.147688
v -0.289374 -0.000000 0.178845
v -0.071351 0.226968 0.147688
v 0.177730 0.130042 0.133695
v 0.136416 0.002892 0.216322
v 0.044035 -0.124257 0.216322
v -0.144686 -0.105120 0.289376
v -0.105438 0.081474 0.216322
v 0.055264 0.170089 0.289376
vt 0.628456 0.209747
vt 0.508746 0.158756
vt 0.595159 0.083336
vt 0.546422 0.311578
vt 0.676607 0.367483
vt 0.450343 0.267828
vt 0.492732 0.040268
vt 0.372286 0.136659
vt 0.210881 0.929436
vt 0.162493 1.000000
vt 0.077256 0.924455
vt 0.579498 0.434982
vt 0.456794 0.395391
vt 0.488142 0.672946
vt 0.417177 0.586589
vt 0.542315 0.560805
vt 0.367478 0.738635
vt 0.367535 0.448310
vt 0.367478 0.291065
vt 0.171544 0.670121
vt 0.078549 0.743806
vt 0.077607 0.562664
vt 0.189819 0.803298
vt 0.601958 0.000000
vt 0.000000 0.189154
vt 0.098545 0.131012
vt 0.052169 0.272462
vt 0.154065 0.226516
vt 0.288017 0.973114
vt 0.724416 0.255094
vt 0.725287 0.078927
vt 0.995020 0.577656
vt 0.872229 0.521015
vt 0.984415 0.448310
vt 0.597237 0.696078
vt 0.690435 0.566209
vt 0.684167 0.730984
vt 0.607593 0.448310
vt 0.231407 0.529719
vt 0.505791 0.797675
vt 0.397902 0.917095
vt 0.529019 0.917080
vt 0.326109 0.871151
vt 0.274128 0.707209
vt 0.367478 0.750958
vt 0.151181 0.357873
vt 0.023672 0.453742
vt 0.148382 0.526707
vt 0.887834 0.670041
vt 0.756604 0.592748
vt 0.792267 0.743765
vt 0.750630 0.448407
vt 0.741345 0.886671
vt 0.690435 0.717975
vt 0.645990 0.865979
vt 0.864048 0.395424
vt 0.725287 0.448310
vt 0.777833 0.305994
vt 0.342650 0.621579
vt 0.219912 0.148241
vt 0.172438 0.000000
vt 0.281450 0.093069
vt 0.249200 0.418344
vt 0.249350 0.280557
vt 0.321160 0.334135
vt 0.890824 0.850372
vt 0.225160 0.529720
vt 0.367152 0.481200
vt 0.968503 0.724737
vt 0.875180 0.246432
vt 0.746978 0.145804
vt 0.887197 0.060904
vt 0.964523 0.196304
vt 1.000000 0.336711
vt 0.953918 0.447702
vt 0.367478 0.182969
vn 0.406797 -0.849183 -0.336755
vn -0.145281 -0.804907 -0.575342
vn 0.324951 -0.435455 -0.839515
vn -0.350802 -0.161538 -0.922412
vn 0.888794 -0.270092 -0.370265
vn 0.841649 0.000000 -0.540025
vn 0.885888 0.270389 -0.376951
vn -0.239855 0.000000 -0.970809
vn -0.407849 -0.208641 -0.888892
vn -0.362833 -0.422005 -0.830821
vn -0.829189 -0.089165 -0.551811
vn -0.128790 -0.245166 -0.960889
vn -0.805612 -0.253696 -0.535376
vn -0.249899 0.181560 -0.951097
vn -0.082200 0.740601 -0.666898
vn -0.133473 0.096970 -0.986297
vn 0.108827 0.765294 -0.634414
vn -0.002377 0.832213 -0.554451
vn 0.410556 0.838129 -0.359143
vn -0.271528 0.047258 -0.961269
vn 0.904981 -0.268049 -0.330394
vn 0.982246 0.000000 -0.187599
vn 0.992077 0.000000 0.125631
vn 0.904981 0.268049 -0.330394
vn 0.475413 -0.852444 -0.217536
vn -0.003772 -0.880952 -0.473191
vn -0.000428 -0.995669 -0.092967
vn 0.344379 -0.643111 -0.683968
vn -0.905032 -0.141362 -0.401165
vn -0.894247 -0.288216 -0.342424
vn -0.901621 -0.296519 0.314889
vn -0.753675 -0.445371 -0.483341
vn -0.204808 0.860415 -0.466625
vn -0.977719 0.197725 0.070503
vn -0.960163 0.194175 0.200954
vn -0.994204 -0.082575 -0.068844
vn 0.353031 0.653365 -0.669689
vn -0.084258 0.922300 -0.377179
vn -0.089170 0.976072 0.198322
vn 0.176396 0.950182 -0.256981
vn 0.805612 -0.434779 0.402438
vn 0.835274 -0.290492 0.466832
vn 0.786067 -0.340941 0.515615
vn 0.900308 -0.305811 -0.309719
vn -0.375405 -0.915470 0.144867
vn -0.003257 -0.940418 0.340004
vn -0.480240 -0.605004 0.635091
vn -0.001158 -0.995770 0.091872
vn -0.814270 -0.563021 0.141322
vn -0.968247 0.134524 -0.210715
vn -0.855306 0.518106 -0.004244
vn -0.967261 0.134337 -0.215312
vn -0.484176 0.614903 0.622469
vn 0.085944 0.966725 0.240951
vn -0.050266 0.983108 0.175988
vn 0.086694 0.975171 -0.203776
vn 0.527149 0.530599 0.663761
vn 0.835303 0.297769 0.462171
vn 0.807633 0.432342 0.401010
vn 0.899193 0.313152 -0.305594
vn 0.518159 -0.169070 0.838407
vn 0.491120 -0.356821 0.794657
vn 0.268034 -0.194737 0.943523
vn 0.594785 -0.293159 0.748524
vn -0.532557 -0.766806 0.358318
vn 0.192735 -0.704944 0.682574
vn 0.341383 -0.165446 0.925249
vn -0.188355 -0.404866 0.894766
vn -0.382254 0.507875 0.771975
vn -0.351215 0.404476 0.844422
vn -0.053566 0.373792 0.925964
vn -0.715448 -0.588035 0.377291
vn -0.015308 0.923101 0.384252
vn -0.564417 0.456639 0.687688
vn -0.378255 -0.074694 0.922683
vn -0.419234 0.465824 0.779263
vn 0.596732 0.291851 0.747485
vn 0.795210 0.126910 0.592904
vn 0.262616 -0.276459 0.924448
vn 0.673518 0.643112 0.364390
usemtl Material.001_debris_1.tga
s off
f 15/1/1 13/2/1 2/3/1
f 13/2/2 15/1/2 14/4/2
f 3/5/3 14/4/3 15/1/3
f 14/4/4 1/6/4 13/2/4
f 17/7/5 2/3/5 13/2/5
f 13/2/6 16/8/6 17/7/6
f 6/9/7 17/10/7 16/11/7
f 13/2/8 1/6/8 16/8/8
f 19/12/9 14/4/9 3/5/9
f 14/4/10 19/12/10 18/13/10
f 4/14/11 18/15/11 19/16/11
f 18/13/12 1/6/12 14/4/12
f 21/17/13 18/15/13 4/14/13
f 18/13/14 21/18/14 20/19/14
f 5/20/15 20/21/15 21/22/15
f 20/19/16 1/6/16 18/13/16
f 22/23/17 20/21/17 5/20/17
f 20/21/18 22/23/18 16/11/18
f 6/9/19 16/11/19 22/23/19
f 16/8/20 1/6/20 20/19/20
f 24/24/21 2/3/21 17/7/21
f 17/25/22 23/26/22 24/27/22
f 11/28/23 24/27/23 23/26/23
f 23/29/24 17/10/24 6/9/24
f 26/30/25 3/5/25 15/1/25
f 15/1/26 25/31/26 26/30/26
f 7/32/27 26/33/27 25/34/27
f 25/31/28 15/1/28 2/3/28
f 28/35/29 4/14/29 19/16/29
f 19/16/30 27/36/30 28/35/30
f 8/37/31 28/35/31 27/36/31
f 27/36/32 19/16/32 3/38/32
f 30/39/33 5/20/33 21/22/33
f 21/17/34 29/40/34 30/41/34
f 9/42/35 30/41/35 29/40/35
f 29/40/36 21/17/36 4/14/36
f 32/43/37 6/9/37 22/23/37
f 22/23/38 31/44/38 32/43/38
f 10/45/39 32/43/39 31/44/39
f 31/44/40 22/23/40 5/20/40
f 33/46/41 24/27/41 11/28/41
f 24/27/42 33/46/42 25/47/42
f 7/48/43 25/47/43 33/46/43
f 25/31/44 2/3/44 24/24/44
f 34/49/45 26/33/45 7/32/45
f 26/33/46 34/49/46 27/50/46
f 8/51/47 27/50/47 34/49/47
f 27/50/48 3/52/48 26/33/48
f 35/53/49 28/54/49 8/51/49
f 28/35/50 35/55/50 29/40/50
f 9/42/51 29/40/51 35/55/51
f 29/40/52 4/14/52 28/35/52
f 36/56/53 30/57/53 9/58/53
f 30/39/54 36/59/54 31/44/54
f 10/45/55 31/44/55 36/59/55
f 31/44/56 5/20/56 30/39/56
f 37/60/57 32/61/57 10/62/57
f 32/61/58 37/60/58 23/26/58
f 11/28/59 23/26/59 37/60/59
f 23/29/60 6/9/60 32/43/60
f 39/63/61 7/48/61 33/46/61
f 33/46/62 38/64/62 39/63/62
f 12/65/63 39/63/63 38/64/63
f 38/64/64 33/46/64 11/28/64
f 40/66/65 8/51/65 34/49/65
f 34/67/66 39/63/66 40/68/66
f 12/65/67 40/68/67 39/63/67
f 39/69/68 34/49/68 7/32/68
f 41/70/69 9/58/69 35/71/69
f 35/71/70 40/72/70 41/70/70
f 12/73/71 41/70/71 40/72/71
f 40/66/72 35/53/72 8/51/72
f 42/74/73 10/75/73 36/56/73
f 36/56/74 41/70/74 42/74/74
f 12/73/75 42/74/75 41/70/75
f 41/70/76 36/56/76 9/58/76
f 38/64/77 11/28/77 37/60/77
f 37/60/78 42/76/78 38/64/78
f 12/65/79 38/64/79 42/76/79
f 42/76/80 37/60/80 10/62/80
